# xmcd
#
# Track frame offsets:
#	182
#	12425
#	26475
#	48275
#	65412
#	80487
#	93825
#	105750
#	123862
#	135750
#	150337
#	169087
#	181550
#
# Disc length: 2575 seconds
#
# Revision: 6
# Processed by: cddbd v1.5.2PL0 Copyright (c) Steve Scherf et al.
# Submitted via: SynApp - FreeCDDB Version: 2.5
#
DISCID=830a0d0d
DTITLE=Blues 3 - Blues CD3(4)
DYEAR=0
DGENRE=Blues
TTITLE0=Piano Red - Right string baby, but the wrong yo-yo
TTITLE1=Lightning Slim - Things I used to do
TTITLE2=Bukka White - Baby, please don't go
TTITLE3=Otis Rush - Maybe the last time
TTITLE4=Little Walter - Watermelon man
TTITLE5=Eddie Taylor - Big town playboy
TTITLE6=Billy Boy Arnold - I wish I would
TTITLE7=Walter "Wolfman" Washington - Nobody's fault but mine
TTITLE8=Arthur Crudup - Too much competition
TTITLE9=Brownie and Sunny - Trouble in mind
TTITLE10=Muddy Waters - Got my mojo working
TTITLE11=Jimmy McCracklin - The walk
TTITLE12=Little Walter - My baby
EXTD=
EXTT0=
EXTT1=
EXTT2=
EXTT3=
EXTT4=
EXTT5=
EXTT6=
EXTT7=
EXTT8=
EXTT9=
EXTT10=
EXTT11=
EXTT12=
PLAYORDER=
